<?xml version="1.0" encoding="UTF-8" standalone="no"?>
<!DOCTYPE svg PUBLIC "-//W3C//DTD SVG 1.1//EN"
 "http://www.w3.org/Graphics/SVG/1.1/DTD/svg11.dtd">
<!-- Generated by graphviz version 2.46.1 (0)
 -->
<!-- Pages: 1 -->
<svg width="569pt" height="233pt"
 viewBox="0.00 0.00 568.50 233.00" xmlns="http://www.w3.org/2000/svg" xmlns:xlink="http://www.w3.org/1999/xlink">
<g id="graph0" class="graph" transform="scale(1 1) rotate(0) translate(4 229)">
<polygon fill="white" stroke="transparent" points="-4,4 -4,-229 564.5,-229 564.5,4 -4,4"/>
<!-- 1 -->
<g id="node1" class="node">
<title>1</title>
<polygon fill="#f44802" stroke="#f44802" points="190,-225 0,-225 0,-184 190,-184 190,-225"/>
<text text-anchor="middle" x="95" y="-213" font-family="Arial" font-size="10.00" fill="#ffffff">HashTableList::getElement(char const*)</text>
<text text-anchor="middle" x="95" y="-202" font-family="Arial" font-size="10.00" fill="#ffffff">92.75%</text>
<text text-anchor="middle" x="95" y="-191" font-family="Arial" font-size="10.00" fill="#ffffff">(92.75%)</text>
</g>
<!-- 2 -->
<g id="node2" class="node">
<title>2</title>
<polygon fill="#0d267a" stroke="#0d267a" points="373,-225 199,-225 199,-184 373,-184 373,-225"/>
<text text-anchor="middle" x="286" y="-213" font-family="Arial" font-size="10.00" fill="#ffffff">HashTable::getElement(char const*)</text>
<text text-anchor="middle" x="286" y="-202" font-family="Arial" font-size="10.00" fill="#ffffff">5.70%</text>
<text text-anchor="middle" x="286" y="-191" font-family="Arial" font-size="10.00" fill="#ffffff">(2.90%)</text>
</g>
<!-- 3 -->
<g id="node3" class="node">
<title>3</title>
<polygon fill="#0d1976" stroke="#0d1976" points="346,-144 226,-144 226,-92 346,-92 346,-144"/>
<text text-anchor="middle" x="286" y="-132" font-family="Arial" font-size="10.00" fill="#ffffff">opt2_crc32(char const*)</text>
<text text-anchor="middle" x="286" y="-121" font-family="Arial" font-size="10.00" fill="#ffffff">2.90%</text>
<text text-anchor="middle" x="286" y="-110" font-family="Arial" font-size="10.00" fill="#ffffff">(2.90%)</text>
<text text-anchor="middle" x="286" y="-99" font-family="Arial" font-size="10.00" fill="#ffffff">4822898×</text>
</g>
<!-- 2&#45;&gt;3 -->
<g id="edge1" class="edge">
<title>2&#45;&gt;3</title>
<path fill="none" stroke="#0d1976" stroke-width="0.5" d="M286,-183.9C286,-173.21 286,-159.77 286,-147.9"/>
<polygon fill="#0d1976" stroke="#0d1976" stroke-width="0.5" points="287.23,-147.77 286,-144.27 284.78,-147.77 287.23,-147.77"/>
<text text-anchor="middle" x="307.5" y="-167" font-family="Arial" font-size="10.00" fill="#0d1976">2.80%</text>
<text text-anchor="middle" x="307.5" y="-156" font-family="Arial" font-size="10.00" fill="#0d1976">4665500×</text>
</g>
<!-- 4 -->
<g id="node4" class="node">
<title>4</title>
<polygon fill="#0d1375" stroke="#0d1375" points="560.5,-144 355.5,-144 355.5,-92 560.5,-92 560.5,-144"/>
<text text-anchor="middle" x="458" y="-132" font-family="Arial" font-size="10.00" fill="#ffffff">HashTable::addElement(char const*, char*)</text>
<text text-anchor="middle" x="458" y="-121" font-family="Arial" font-size="10.00" fill="#ffffff">1.54%</text>
<text text-anchor="middle" x="458" y="-110" font-family="Arial" font-size="10.00" fill="#ffffff">(0.00%)</text>
<text text-anchor="middle" x="458" y="-99" font-family="Arial" font-size="10.00" fill="#ffffff">157398×</text>
</g>
<!-- 6 -->
<g id="node5" class="node">
<title>6</title>
<polygon fill="#0d1375" stroke="#0d1375" points="547,-52 369,-52 369,0 547,0 547,-52"/>
<text text-anchor="middle" x="458" y="-40" font-family="Arial" font-size="10.00" fill="#ffffff">HashTableList::append(ListElement*)</text>
<text text-anchor="middle" x="458" y="-29" font-family="Arial" font-size="10.00" fill="#ffffff">1.45%</text>
<text text-anchor="middle" x="458" y="-18" font-family="Arial" font-size="10.00" fill="#ffffff">(1.45%)</text>
<text text-anchor="middle" x="458" y="-7" font-family="Arial" font-size="10.00" fill="#ffffff">157398×</text>
</g>
<!-- 4&#45;&gt;6 -->
<g id="edge2" class="edge">
<title>4&#45;&gt;6</title>
<path fill="none" stroke="#0d1375" stroke-width="0.5" d="M458,-91.93C458,-80.71 458,-67.42 458,-55.8"/>
<polygon fill="#0d1375" stroke="#0d1375" stroke-width="0.5" points="459.23,-55.75 458,-52.25 456.78,-55.75 459.23,-55.75"/>
<text text-anchor="middle" x="477" y="-75" font-family="Arial" font-size="10.00" fill="#0d1375">1.45%</text>
<text text-anchor="middle" x="477" y="-64" font-family="Arial" font-size="10.00" fill="#0d1375">157398×</text>
</g>
<!-- 5 -->
<g id="node6" class="node">
<title>5</title>
<polygon fill="#0d1375" stroke="#0d1375" points="526.5,-225 389.5,-225 389.5,-184 526.5,-184 526.5,-225"/>
<text text-anchor="middle" x="458" y="-213" font-family="Arial" font-size="10.00" fill="#ffffff">HashTable::readCSV(char*)</text>
<text text-anchor="middle" x="458" y="-202" font-family="Arial" font-size="10.00" fill="#ffffff">1.54%</text>
<text text-anchor="middle" x="458" y="-191" font-family="Arial" font-size="10.00" fill="#ffffff">(0.00%)</text>
</g>
<!-- 5&#45;&gt;4 -->
<g id="edge3" class="edge">
<title>5&#45;&gt;4</title>
<path fill="none" stroke="#0d1375" stroke-width="0.5" d="M458,-183.9C458,-173.21 458,-159.77 458,-147.9"/>
<polygon fill="#0d1375" stroke="#0d1375" stroke-width="0.5" points="459.23,-147.77 458,-144.27 456.78,-147.77 459.23,-147.77"/>
<text text-anchor="middle" x="477" y="-167" font-family="Arial" font-size="10.00" fill="#0d1375">1.54%</text>
<text text-anchor="middle" x="477" y="-156" font-family="Arial" font-size="10.00" fill="#0d1375">157398×</text>
</g>
</g>
</svg>
